<svg xmlns="http://www.w3.org/2000/svg" viewBox="0 0 800 640"><rect width="800" height="640" rx="40" fill="#eaf5ed"/><rect x="90" y="245" width="390" height="260" rx="18" fill="#fff"/><path d="M60 260 285 105l225 155" fill="#d7eadc" stroke="#0c3b24" stroke-width="18" stroke-linejoin="round"/><rect x="150" y="320" width="95" height="185" rx="8" fill="#dce9df"/><rect x="315" y="325" width="105" height="95" rx="8" fill="#dce9df"/><circle cx="590" cy="205" r="54" fill="#f0c7a2"/><path d="M535 195c8-62 109-70 118 4-25-8-76-10-118-4z" fill="#173b28"/><path d="M515 515c8-105 27-208 74-245 55 18 82 91 87 245z" fill="#145c39"/><path d="M580 270h40l16 55-72 0z" fill="#fff"/><rect x="668" y="337" width="48" height="145" rx="18" fill="#f4b740"/><path d="M667 355c-43 20-61 65-72 120" fill="none" stroke="#173b28" stroke-width="15" stroke-linecap="round"/><path d="M595 475c-31 11-55 27-76 51" fill="none" stroke="#173b28" stroke-width="13" stroke-linecap="round"/><circle cx="514" cy="530" r="13" fill="#f4b740"/><path d="M108 530h596" stroke="#0c3b24" stroke-width="12" stroke-linecap="round"/><circle cx="700" cy="126" r="42" fill="#f4b740" opacity=".8"/><path d="M116 138c38-46 89-70 153-72" fill="none" stroke="#82b892" stroke-width="15" stroke-linecap="round"/></svg>
